#!OML:ASF X:\für Bonn\!DataBase\2005_08_10_Bjorn_Final\c3d\bjorn.ASF
:FULLY-SPECIFIED
:DEGREES
376
root -0.4625 2.0725 21.9167 -437.854 -176.708 370.856
lowerback 70.3322 -3.27229 27.4225
upperback 23.6702 -5.40402 4.43989
thorax 8.7895 -9.33987 -5.09602
lowerneck 9.70608 12.0862 6.38757
upperneck 8.92856 16.5156 -10.5006
head 2.53103 8.1207 -4.10682
rclavicle -6.55989e-014 -5.56597e-014
rhumerus -225.905 -184.391 113.097
rradius 50.3898
rwrist 8.97048
rhand -26.0376 20.8718
rfingers 7.12502
rthumb 0.509382 -9.10732
lclavicle -6.55989e-014 -5.56597e-014
lhumerus -424.712 -45.6073 -272.876
lradius 58.2946
lwrist 2.81595
lhand -36.2099 -11.3384
lfingers 7.12502
lthumb -9.31239 18.4359
rfemur -64.2268 -32.3295 1.27655
rtibia 120.416
rfoot 35.1917 20.1766
rtoes -4.93289
lfemur -69.3993 12.6461 -10.0703
ltibia 117.599
lfoot 25.9646 6.63555
ltoes 18.4255
377
root -0.466652 2.0667 21.9258 -437.998 -176.635 370.881
lowerback 70.5788 -3.3086 27.3135
upperback 23.5694 -5.44563 4.44063
thorax 8.66473 -9.40133 -5.00501
lowerneck 9.85365 12.073 6.4424
upperneck 8.81796 16.5036 -10.6091
head 2.48675 8.12182 -4.1599
rclavicle 1.18078e-013 -1.55052e-014
rhumerus -224.892 -184.466 113.611
rradius 51.4802
rwrist 8.29588
rhand -26.1089 20.6105
rfingers 7.12502
rthumb 0.440546 -9.36884
lclavicle 1.18078e-013 -1.55052e-014
lhumerus -424.128 -46.4302 -273.439
lradius 59.0757
lwrist 2.01529
lhand -36.5263 -12.194
lfingers 7.12502
lthumb -9.61762 17.5665
rfemur -64.0417 -32.1888 1.12038
rtibia 120.348
rfoot 35.1333 20.2784
rtoes -5.38619
lfemur -69.2087 12.3436 -10.149
ltibia 117.52
lfoot 26.0086 6.75826
ltoes 19.0169
378
root -0.469873 2.06055 21.9349 -438.163 -176.566 370.891
lowerback 70.8024 -3.34255 27.2348
upperback 23.5008 -5.49113 4.4387
thorax 8.58401 -9.46141 -4.93698
lowerneck 9.93902 12.0464 6.42969
upperneck 8.65911 16.4661 -10.6667
head 2.42587 8.11023 -4.18668
rclavicle -4.13472e-014 -3.26007e-014
rhumerus -223.78 -184.428 114.151
rradius 52.5265
rwrist 7.59986
rhand -26.0958 20.1506
rfingers 7.12502
rthumb 0.453263 -9.82869
lclavicle -4.13472e-014 -3.26007e-014
lhumerus -423.363 -47.3246 -274.152
lradius 59.8278
lwrist 1.29404
lhand -36.7785 -13.0526
lfingers 7.12502
lthumb -9.86091 16.6965
rfemur -63.8114 -32.0276 0.950869
rtibia 120.265
rfoot 35.1221 20.3064
rtoes -5.61422
lfemur -68.9947 12.0452 -10.2195
ltibia 117.441
lfoot 26.0467 6.90013
ltoes 19.3543
379
root -0.473479 2.05389 21.944 -438.324 -176.473 370.886
lowerback 70.9715 -3.34371 27.1259
upperback 23.4643 -5.53937 4.43703
thorax 8.5318 -9.52066 -4.86824
lowerneck 9.92232 12.0333 6.32651
upperneck 8.55009 16.4333 -10.5864
head 2.37832 8.09578 -4.15197
rclavicle -1.39149e-014 8.74653e-015
rhumerus -222.547 -184.29 114.698
rradius 53.4377
rwrist 6.88991
rhand -26.1063 19.7942
rfingers 7.12502
rthumb 0.44312 -10.1851
lclavicle -1.39149e-014 8.74653e-015
lhumerus -422.404 -48.2359 -275.013
lradius 60.5185
lwrist 0.666422
lhand -37.0398 -13.6497
lfingers 7.12502
lthumb -10.113 16.0873
rfemur -63.6112 -31.871 0.763061
rtibia 120.196
rfoot 35.1025 20.343
rtoes -5.83156
lfemur -68.8055 11.7488 -10.325
ltibia 117.37
lfoot 26.0719 7.03443
ltoes 19.5621
380
root -0.476238 2.04573 21.9529 -438.488 -176.383 370.903
lowerback 71.0944 -3.36565 27.0464
upperback 23.4436 -5.60223 4.42474
thorax 8.49951 -9.57637 -4.82329
lowerneck 9.93612 12.008 6.2665
upperneck 8.39625 16.3907 -10.5645
head 2.31972 8.07975 -4.14399
rclavicle 3.57812e-015 1.35174e-014
rhumerus -221.227 -184.073 115.233
rradius 54.211
rwrist 6.38517
rhand -26.2513 19.596
rfingers 7.12502
rthumb 0.302996 -10.3835
lclavicle 3.57812e-015 1.35174e-014
lhumerus -421.306 -49.2328 -275.984
lradius 61.2017
lwrist 0.205938
lhand -37.3967 -14.2456
lfingers 7.12502
lthumb -10.4574 15.4744
rfemur -63.3997 -31.7232 0.577089
rtibia 120.119
rfoot 35.0914 20.3689
rtoes -6.1264
lfemur -68.611 11.4244 -10.4323
ltibia 117.293
lfoot 26.1086 7.17111
ltoes 19.6039
381
root -0.479186 2.03872 21.963 -438.654 -176.28 370.878
lowerback 71.1853 -3.34918 26.9552
upperback 23.4561 -5.64537 4.40144
thorax 8.50146 -9.61694 -4.80303
lowerneck 9.89611 11.9762 6.19647
upperneck 8.25188 16.3363 -10.449
head 2.26334 8.05754 -4.1037
rclavicle 9.54166e-014 0
rhumerus -219.817 -183.699 115.743
rradius 54.8356
rwrist 6.02064
rhand -26.3755 19.6852
rfingers 7.12502
rthumb 0.183029 -10.2944
lclavicle 9.54166e-014 0
lhumerus -419.921 -50.2597 -277.166
lradius 61.7656
lwrist -0.18478
lhand -37.7728 -14.9242
lfingers 7.12502
lthumb -10.8201 14.7771
rfemur -63.1933 -31.5504 0.369194
rtibia 120.04
rfoot 35.0805 20.412
rtoes -6.37223
lfemur -68.3917 11.1184 -10.5644
ltibia 117.208
lfoot 26.1526 7.267
ltoes 19.4588
382
root -0.481708 2.03009 21.9723 -438.808 -176.203 370.878
lowerback 71.2147 -3.36252 26.9117
upperback 23.476 -5.6926 4.36075
thorax 8.51401 -9.64166 -4.82197
lowerneck 9.82184 11.961 6.22718
upperneck 8.1911 16.318 -10.3861
head 2.25262 8.05179 -4.08673
rclavicle 9.93923e-015 -3.49861e-014
rhumerus -218.367 -183.182 116.237
rradius 55.3713
rwrist 5.71075
rhand -26.3458 19.917
rfingers 7.12502
rthumb 0.211742 -10.0626
lclavicle 9.93923e-015 -3.49861e-014
lhumerus -418.308 -51.3091 -278.532
lradius 62.2382
lwrist -0.669456
lhand -38.1047 -15.5044
lfingers 7.12502
lthumb -11.1403 14.1799
rfemur -63.0276 -31.3807 0.226604
rtibia 119.977
rfoot 35.0425 20.4437
rtoes -6.61265
lfemur -68.2273 10.8135 -10.667
ltibia 117.141
lfoot 26.2485 7.23692
ltoes 19.0612
383
root -0.482993 2.02102 21.9821 -438.974 -176.13 370.867
lowerback 71.2503 -3.3501 26.8302
upperback 23.4881 -5.7296 4.32777
thorax 8.51115 -9.66817 -4.81979
lowerneck 9.85151 11.952 6.33321
upperneck 8.07573 16.3181 -10.444
head 2.22642 8.06012 -4.12354
rclavicle -1.98785e-014 -9.54166e-015
rhumerus -216.891 -182.717 116.702
rradius 55.8684
rwrist 5.38707
rhand -26.2321 20.067
rfingers 7.12502
rthumb 0.321613 -9.9125
lclavicle -1.98785e-014 -9.54166e-015
lhumerus -416.483 -52.2709 -280.063
lradius 62.6409
lwrist -1.32311
lhand -38.459 -15.8549
lfingers 7.12502
lthumb -11.482 13.8106
rfemur -62.8379 -31.1816 0.0837271
rtibia 119.898
rfoot 35.0259 20.4426
rtoes -6.93419
lfemur -68.0388 10.5251 -10.7619
ltibia 117.069
lfoot 26.3222 7.27155
ltoes 18.8245
384
root -0.484438 2.01209 21.9929 -439.128 -176.039 370.848
lowerback 71.2414 -3.34266 26.7519
upperback 23.5129 -5.76709 4.26485
thorax 8.51621 -9.67845 -4.8562
lowerneck 9.81492 11.9352 6.44148
upperneck 8.02921 16.3059 -10.4236
head 2.22415 8.05897 -4.13167
rclavicle -5.4467e-014 -2.78299e-014
rhumerus -215.377 -182.128 117.111
rradius 56.2536
rwrist 5.1415
rhand -26.0759 20.2041
rfingers 7.12502
rthumb 0.472393 -9.7751
lclavicle -5.4467e-014 -2.78299e-014
lhumerus -414.47 -53.216 -281.824
lradius 63.0053
lwrist -1.97823
lhand -38.7171 -16.1352
lfingers 7.12502
lthumb -11.7308 13.5163
rfemur -62.6823 -30.9753 -0.0717547
rtibia 119.825
rfoot 35.0281 20.4537
rtoes -7.15815
lfemur -67.8572 10.2218 -10.8806
ltibia 116.98
lfoot 26.4069 7.2491
ltoes 18.3519
385
root -0.485909 2.00237 22.0025 -439.271 -175.962 370.833
lowerback 71.1925 -3.31987 26.672
upperback 23.5525 -5.80017 4.20868
thorax 8.53606 -9.68519 -4.89177
lowerneck 9.7626 11.918 6.51453
upperneck 7.97584 16.2879 -10.3512
head 2.21497 8.05432 -4.11909
rclavicle -6.79844e-014 1.74931e-014
rhumerus -213.84 -181.533 117.471
rradius 56.6183
rwrist 4.91079
rhand -25.9984 20.3457
rfingers 7.12502
rthumb 0.547335 -9.63334
lclavicle -6.79844e-014 1.74931e-014
lhumerus -412.196 -54.0775 -283.781
lradius 63.2942
lwrist -2.64951
lhand -38.8916 -16.284
lfingers 7.12502
lthumb -11.8992 13.3579
rfemur -62.5375 -30.7727 -0.198702
rtibia 119.752
rfoot 35.0337 20.388
rtoes -7.24637
lfemur -67.7017 9.92793 -10.9847
ltibia 116.91
lfoot 26.4776 7.29168
ltoes 17.9633
386
root -0.486806 1.9927 22.0131 -439.412 -175.873 370.807
lowerback 71.1341 -3.30598 26.5883
upperback 23.578 -5.81995 4.12056
thorax 8.53284 -9.67035 -4.96079
lowerneck 9.72071 11.8753 6.67758
upperneck 7.97813 16.2447 -10.2985
head 2.22718 8.03697 -4.12472
rclavicle -2.82274e-014 -1.43125e-014
rhumerus -212.374 -180.954 117.767
rradius 56.9543
rwrist 4.7093
rhand -25.9694 20.484
rfingers 7.12502
rthumb 0.575304 -9.49493
lclavicle -2.82274e-014 -1.43125e-014
lhumerus -409.823 -54.9226 -285.892
lradius 63.5891
lwrist -3.23778
lhand -39.0128 -16.3281
lfingers 7.12502
lthumb -12.016 13.3069
rfemur -62.4033 -30.5738 -0.340282
rtibia 119.682
rfoot 35.0073 20.4041
rtoes -7.50516
lfemur -67.5409 9.6397 -11.1085
ltibia 116.832
lfoot 26.5456 7.30176
ltoes 17.5725
